<?xml version="1.0" encoding="utf-8"?>
<!-- Generator: Adobe Illustrator 27.7.0, SVG Export Plug-In . SVG Version: 6.00 Build 0)  -->
<svg version="1.1" id="Camada_1" xmlns="http://www.w3.org/2000/svg" xmlns:xlink="http://www.w3.org/1999/xlink" x="0px" y="0px"
	 viewBox="0 0 800 800" style="enable-background:new 0 0 800 800;" xml:space="preserve">
<style type="text/css">
	.st0{fill:#FFFFFF;}
</style>
<g id="SVGRepo_bgCarrier">
</g>
<g id="SVGRepo_tracerCarrier">
</g>
<g id="SVGRepo_iconCarrier">
	<g>
		<path class="st0" d="M439.6,353.9H331.7V240.6h99.7c9.5,0,18.7,0.8,27.5,2.4s16.6,4.4,23.4,8.5c6.8,4.1,12.2,9.7,16.3,17
			s6.1,16.5,6.1,27.8c0,20.3-6.1,35-18.3,44.1C474.2,349.3,458.6,353.9,439.6,353.9z"/>
		<path class="st0" d="M524.4,495.7c0,12.7-2.1,23.1-6.4,31.2c-4.3,8.1-10.1,14.6-17.3,19.3c-7.2,4.8-15.6,8.2-25.1,10.2
			c-9.5,2-19.4,3-29.8,3h-114v-133h116c23.1,0,41.6,5.3,55.6,15.9S524.4,470.8,524.4,495.7z"/>
		<path class="st0" d="M696.8,0H103.2C46.2,0,0,46.2,0,103.2v593.7C0,753.8,46.2,800,103.2,800h593.7c57,0,103.2-46.2,103.2-103.2
			V103.2C800,46.2,753.8,0,696.8,0z M616.7,565.2c-9.5,17.9-22.3,32.5-38.3,43.8c-16.1,11.3-34.4,19.7-55,25.1
			c-20.6,5.4-41.7,8.1-63.4,8.1H225.2V157.8h228c23.1,0,44.1,2,63.1,6.1c19,4.1,35.3,10.7,48.8,20s24.1,21.6,31.5,37
			c7.5,15.4,11.2,34.4,11.2,57c0,24.4-5.5,44.8-16.6,61c-11.1,16.3-27.5,29.6-49.2,40c29.8,8.6,52.1,23.6,66.8,45.1
			c14.7,21.5,22,47.4,22,77.7C630.9,526.2,626.2,547.3,616.7,565.2z"/>
	</g>
</g>
</svg>
