<?xml version="1.0" encoding="utf-8"?>
<!-- Generator: Adobe Illustrator 27.7.0, SVG Export Plug-In . SVG Version: 6.00 Build 0)  -->
<svg version="1.1" id="Camada_1" xmlns="http://www.w3.org/2000/svg" xmlns:xlink="http://www.w3.org/1999/xlink" x="0px" y="0px"
	 viewBox="0 0 800 800" style="enable-background:new 0 0 800 800;" xml:space="preserve">
<style type="text/css">
	.st0{fill-rule:evenodd;clip-rule:evenodd;fill:#474747;}
</style>
<g id="SVGRepo_bgCarrier">
</g>
<g id="SVGRepo_tracerCarrier">
</g>
<g id="SVGRepo_iconCarrier">
	<path class="st0" d="M255.9,288.3c-61.7,0-111.7,50-111.7,111.7c0,61.7,50,111.7,111.7,111.7h111.7V402.2c0-0.7,0-1.5,0-2.3
		c0-0.7,0-1.5,0-2.2V288.3H255.9z M367.6,223.4H255.9c-61.7,0-111.7-50-111.7-111.7C144.2,50,194.2,0,255.9,0h111.7V223.4z M432.4,0
		v223.4l111.7,0c61.7,0,111.7-50,111.7-111.7C655.9,50,605.8,0,544.1,0H432.4z M544.1,288.3c-61.1,0-110.7,49.1-111.7,109.9v3.6
		c1,60.9,50.6,109.9,111.7,109.9c61.7,0,111.7-50,111.7-111.7C655.9,338.3,605.8,288.3,544.1,288.3z M255.9,576.6
		c-61.7,0-111.7,50-111.7,111.7S194.2,800,255.9,800c61.7,0,111.7-50,111.7-111.7l0-111.7H255.9z"/>
</g>
</svg>
