<?xml version="1.0" encoding="utf-8"?>
<!-- Generator: Adobe Illustrator 27.8.1, SVG Export Plug-In . SVG Version: 6.00 Build 0)  -->
<svg version="1.1" id="Camada_1" xmlns="http://www.w3.org/2000/svg" xmlns:xlink="http://www.w3.org/1999/xlink" x="0px" y="0px"
	 viewBox="0 0 800 800" style="enable-background:new 0 0 800 800;" xml:space="preserve">
<style type="text/css">
	.st0{fill:#FFFFFF;}
</style>
<g id="SVGRepo_bgCarrier">
</g>
<g id="SVGRepo_tracerCarrier">
</g>
<g id="SVGRepo_iconCarrier">
	<path class="st0" d="M649.3,293.3v65c0,2.7-1.7,3.7-5.3,3.7c-1.6-0.1-3.4-0.1-5.3-0.1c-21.3,0-41.4,4.6-59.6,12.8l0.9-0.4
		c-6.7,3-12.3,7.2-17,12.3l0,0.1v170c0,3.3-1.3,4.7-4.3,4.7H493c-0.2,0-0.5,0.1-0.7,0.1c-2.4,0-4.3-1.8-4.6-4v0v-186l-0.3-25
		l-0.7-26c0-7.7-0.7-15-1.3-22.7c0-0.1,0-0.3,0-0.5c0-1.5,1-2.8,2.3-3.2h0H547c0,0,0,0,0,0c3.2,0,5.9,2.3,6.6,5.3v0.1
		c2.7,8.8,4.3,18.9,4.3,29.3c0,0.5,0,1,0,1.4V330c10-11.5,22-21.1,35.3-28.3l0.7-0.3c14.5-8.2,31.8-13,50.2-13c0.2,0,0.3,0,0.5,0h0
		c0.2,0,0.3,0,0.5,0c2.1,0,3.9,1.6,4.1,3.7v0L649.3,293.3z M422,398.3c-13.3,18.4-31.6,32.5-52.9,40.4l-0.8,0.3
		c-20.7,7.2-44.5,11.4-69.3,11.4c-2,0-4,0-6-0.1h0.3l-16.7-0.3l-14.3-0.3v107c0,0.2,0.1,0.4,0.1,0.7c0,2.1-1.6,3.8-3.7,4l0,0H194
		c-2.7,0-4-1.3-4-4.3v-343c0-2.3,1-3.7,3.3-3.7l18.7-0.3l25.3-0.7l29-0.7l30.3-0.3c1.7-0.1,3.7-0.1,5.6-0.1
		c22.6,0,44.2,3.8,64.4,10.8l-1.4-0.4c17.4,6,32.4,15.4,44.7,27.4l0,0c10.5,10.5,18.7,23.2,24.1,37.3l0.2,0.7
		c4.8,12.9,7.6,27.8,7.7,43.3l0,0c0.1,1.4,0.1,3.1,0.1,4.8c0,24.7-7.5,47.6-20.4,66.7L422,398.3L422,398.3z M658.3,10H141.7
		C63.5,10,0.1,73.5,0.1,151.7l0,0v496.6c0,0,0,0.1,0,0.1C0.1,726.6,63.4,790,141.6,790c0.1,0,0.1,0,0.1,0h516.6c0,0,0.1,0,0.1,0
		c78.2,0,141.5-63.4,141.5-141.5c0-0.1,0-0.1,0-0.1l0,0V151.7c0,0,0-0.1,0-0.1C800,73.4,736.6,10,658.5,10
		C658.4,10,658.4,10,658.3,10L658.3,10L658.3,10z M338.3,280.7c-10.6-4.3-22.8-6.7-35.6-6.7c-1.3,0-2.6,0-3.9,0.1h0.2
		c-12.1-0.2-24.2,0-36.3,0.7v112l13,0.7h17.7c0.1,0,0.1,0,0.1,0c13.7,0,26.8-2.2,39.1-6.2l-0.9,0.2c11-3.3,20.2-9.4,27.3-17.6
		l0.1-0.1c6.5-8.5,10.4-19.3,10.4-31.1c0-1.1,0-2.3-0.1-3.4v0.2c0.1-1,0.1-2.3,0.1-3.5c0-20.5-12.8-38-30.8-45L338.3,280.7
		L338.3,280.7z"/>
</g>
</svg>
