<?xml version="1.0" encoding="utf-8"?>
<!-- Generator: Adobe Illustrator 27.7.0, SVG Export Plug-In . SVG Version: 6.00 Build 0)  -->
<svg version="1.1" id="Camada_1" xmlns="http://www.w3.org/2000/svg" xmlns:xlink="http://www.w3.org/1999/xlink" x="0px" y="0px"
	 viewBox="0 0 800 800" style="enable-background:new 0 0 800 800;" xml:space="preserve">
<style type="text/css">
	.st0{fill:url(#SVGID_1_);}
	.st1{fill:url(#SVGID_00000023970462500841536610000015555599643025865130_);}
	.st2{fill:url(#SVGID_00000085960769493487458090000017072236142616440706_);}
</style>
<g id="SVGRepo_bgCarrier">
</g>
<g id="SVGRepo_tracerCarrier">
</g>
<g id="SVGRepo_iconCarrier">
	
		<linearGradient id="SVGID_1_" gradientUnits="userSpaceOnUse" x1="-67.8515" y1="897.04" x2="-67.8515" y2="865.04" gradientTransform="matrix(25 0 0 -25 2376 22426)">
		<stop  offset="0" style="stop-color:#474747"/>
		<stop  offset="1" style="stop-color:#474747"/>
	</linearGradient>
	<path class="st0" d="M600,31.9c0-25.1-28.1-25.1-40.6-22c17.5-13.8,38-10.5,45.3-6.3l169,82.8c16.1,7.9,26.3,24.3,26.3,42.3v545
		c0,18.2-10.5,34.8-26.9,42.6l-159,75.2c-10.9,4.7-34.7,16.3-54.7,0c25,4.7,38.5-13.1,40.6-25.1V31.9z"/>
	
		<linearGradient id="SVGID_00000142892598707281115090000004914577712205758892_" gradientUnits="userSpaceOnUse" x1="-71.1029" y1="893.0786" x2="-93.9373" y2="873.9116" gradientTransform="matrix(25 0 0 -25 2376 22426)">
		<stop  offset="0" style="stop-color:#474747"/>
		<stop  offset="0.2706" style="stop-color:#474747"/>
		<stop  offset="0.4214" style="stop-color:#474747"/>
		<stop  offset="0.6182" style="stop-color:#474747"/>
		<stop  offset="0.8553" style="stop-color:#474747"/>
		<stop  offset="1" style="stop-color:#474747"/>
	</linearGradient>
	<path style="fill:url(#SVGID_00000142892598707281115090000004914577712205758892_);" d="M561.5,9.5c13.3-2.6,38.6-1.4,38.6,22.4
		v187.6L87.8,607c-9,6.8-21.6,5.6-29.2-2.6L5.8,547.3c-8.3-8.9-7.7-23,1.3-31.2L559.4,9.9L561.5,9.5z"/>
	
		<linearGradient id="SVGID_00000057138143194741452960000012369416075170981019_" gradientUnits="userSpaceOnUse" x1="-93.8376" y1="887.7732" x2="-71.0675" y2="868.9196" gradientTransform="matrix(25 0 0 -25 2376 22426)">
		<stop  offset="0" style="stop-color:#474747"/>
		<stop  offset="1" style="stop-color:#474747"/>
	</linearGradient>
	<path style="fill:url(#SVGID_00000057138143194741452960000012369416075170981019_);" d="M600.1,582L87.8,194.5
		c-9-6.8-21.6-5.6-29.2,2.6L5.8,254.2c-8.3,8.9-7.7,23,1.3,31.2l552.3,506.2c25,4.7,38.5-13.1,40.6-25.1V582z"/>
</g>
</svg>
